<svg width="618" height="382" viewBox="0 0 618 382" fill="none" xmlns="http://www.w3.org/2000/svg">
<circle cx="71.1039" cy="296.344" r="71.1039" fill="#13BFA0"/>
<path d="M142.328 291.656C128.184 291.656 114.62 286.037 104.619 276.036C94.6185 266.036 89 252.471 89 238.328C89 224.184 94.6185 210.62 104.619 200.619C114.62 190.618 128.184 185 142.328 185L142.328 238.328L142.328 291.656Z" fill="#13BFA0"/>
<circle cx="218" cy="296.344" r="71.1039" fill="#13BFA0"/>
<path d="M436.208 296.104C436.208 282.041 432.038 268.294 424.225 256.601C416.412 244.908 405.307 235.794 392.314 230.412C379.322 225.031 365.025 223.623 351.232 226.366C337.439 229.11 324.77 235.882 314.826 245.826C304.882 255.77 298.11 268.439 295.366 282.232C292.623 296.025 294.031 310.322 299.412 323.314C304.794 336.307 313.908 347.412 325.601 355.225C337.294 363.038 351.041 367.208 365.104 367.208L365.104 296.104H436.208Z" fill="#13BFA0"/>
<path d="M410 277.5C410 270.207 406.787 263.212 401.067 258.055C395.347 252.897 387.589 250 379.5 250C371.411 250 363.653 252.897 357.933 258.055C352.213 263.212 349 270.207 349 277.5L379.5 277.5H410Z" fill="#1B0C44"/>
<path d="M500.3 164.808L490.877 185.399L484.944 251.36C488.899 249.266 494.367 247.288 501.347 245.427C508.56 243.333 516.121 242.286 524.032 242.286C537.992 242.286 550.556 244.962 561.724 250.313C572.892 255.432 581.733 263.11 588.248 273.347C594.995 283.352 598.369 295.799 598.369 310.69C598.369 324.185 595.228 336.283 588.946 346.986C582.897 357.689 573.939 366.181 562.073 372.463C550.44 378.512 536.131 381.537 519.146 381.537C505.884 381.537 494.251 380.025 484.246 377C474.241 373.975 466.447 370.253 460.863 365.832C455.279 361.411 452.487 357.107 452.487 352.919C452.487 349.196 453.65 345.939 455.977 343.147C458.536 340.355 461.096 338.494 463.655 337.563C468.774 341.984 475.986 346.521 485.293 351.174C494.6 355.827 505.884 358.154 519.146 358.154C535.2 358.154 547.648 353.733 556.489 344.892C565.33 335.818 569.751 324.417 569.751 310.69C569.751 296.497 565.214 285.446 556.14 277.535C547.066 269.624 535.2 265.669 520.542 265.669C512.399 265.669 504.953 266.949 498.206 269.508C491.459 272.067 485.177 274.976 479.36 278.233C473.078 277.768 467.959 275.906 464.004 272.649C460.281 269.159 458.42 264.738 458.42 259.387C458.42 257.991 458.42 256.246 458.42 254.152C458.653 251.825 458.885 249.615 459.118 247.521L465.051 180.862C465.516 175.976 467.029 172.137 469.588 169.345C472.147 166.32 475.87 164.808 480.756 164.808H500.3ZM485.642 188.54V164.808H587.55C588.248 165.739 588.946 167.251 589.644 169.345C590.342 171.439 590.691 173.649 590.691 175.976C590.691 179.699 589.76 182.723 587.899 185.05C586.038 187.377 583.362 188.54 579.872 188.54H485.642Z" fill="#BF138F"/>
</svg>
